<?xml version="1.0" encoding="UTF-8"?>
<svg xmlns="http://www.w3.org/2000/svg" style="stroke-dasharray:none; shape-rendering:auto; font-family:'Arial'; text-rendering:auto; fill-opacity:1; color-interpolation:auto; color-rendering:auto; font-size:12; fill:black; stroke:black; image-rendering:auto; stroke-miterlimit:10; stroke-linecap:square; stroke-linejoin:miter; font-style:normal; stroke-width:1; stroke-dashoffset:0; font-weight:normal; stroke-opacity:1;" contentScriptType="text/ecmascript" preserveAspectRatio="xMidYMid meet" zoomAndPan="magnify" version="1.0" contentStyleType="text/css" xml:xlink="http://www.w3.org/1999/xlink" width="871" height="931"><rect x="40" y="145" width="801" height="145" ry="0" rx="0" style="stroke:#000000; fill:#C0C0C0" /><g componentSequence="9"><text x="-217" y="47" transform="rotate(270)" text-anchor="middle" style="font-weight:bold;font-size:10px;stroke:none; fill:#434343"><tspan dy="14" x="-217">Assignee</tspan></text></g><rect x="0" y="0" width="871" height="931" ry="0" rx="0" style="stroke:#000000; fill:#FFFFFF" /><rect x="30" y="775" width="841" height="156" ry="0" rx="0" style="stroke:#000000; fill:#D6E0D0" /><g componentSequence="33"><text x="-853" y="37" transform="rotate(270)" text-anchor="middle" style="font-weight:bold;font-size:10px;stroke:none; fill:#434343"><tspan dy="14" x="-853">Superintendencia</tspan></text></g><rect x="30" y="465" width="841" height="155" ry="0" rx="0" style="stroke:#000000; fill:#D0DAAE" /><g componentSequence="12"><text x="-542" y="37" transform="rotate(270)" text-anchor="middle" style="font-weight:bold;font-size:10px;stroke:none; fill:#434343"><tspan dy="14" x="-542">Gestor Compras</tspan></text></g><rect x="30" y="620" width="841" height="155" ry="0" rx="0" style="stroke:#000000; fill:#82B0B7" /><g componentSequence="10"><text x="-697" y="37" transform="rotate(270)" text-anchor="middle" style="font-weight:bold;font-size:10px;stroke:none; fill:#434343"><tspan dy="14" x="-697">Juridico</tspan></text></g><rect x="30" y="310" width="841" height="155" ry="0" rx="0" style="stroke:#000000; fill:#ADC9AC" /><g componentSequence="11"><text x="-387" y="37" transform="rotate(270)" text-anchor="middle" style="font-weight:bold;font-size:10px;stroke:none; fill:#434343"><tspan dy="14" x="-387">Comprador</tspan></text></g><rect x="30" y="0" width="841" height="155" ry="0" rx="0" style="stroke:#000000; fill:#C0C0C0" /><g componentSequence="3"><text x="-77" y="37" transform="rotate(270)" text-anchor="middle" style="font-weight:bold;font-size:10px;stroke:none; fill:#434343"><tspan dy="14" x="-77">Solicitante</tspan></text></g><rect x="30" y="155" width="841" height="155" ry="0" rx="0" style="stroke:#000000; fill:#9F9F9F" /><g componentSequence="2"><text x="-232" y="37" transform="rotate(270)" text-anchor="middle" style="font-weight:bold;font-size:10px;stroke:none; fill:#434343"><tspan dy="14" x="-232">Lider</tspan></text></g><g componentSequence="1"><text x="-465" y="7" transform="rotate(270)" text-anchor="middle" style="font-weight:bold;font-size:10px;stroke:none; fill:#434343"><tspan dy="14" x="-465">Solicitação de Contratos</tspan></text></g><g sequence="4"><ellipse cx="202" cy="80" rx="17" ry="17" stroke-width="1" style="fill:url(#linearGradient66FF6696FF96B6FFB6_793749959);" stroke="336633" /></g><g sequence="13"><rect x="150" y="173" width="106" height="98" ry="5" rx="5" style="fill:url(#linearGradientF8FBFEEDF5FCDEEDFAD4E7F8E2E5E9_562578014);" stroke="191970" /></g><g componentSequence="13"><text x="203" y="188" text-anchor="middle" style="font-weight:bold;font-size:10px;stroke:none; fill:#333399"><tspan dy="14" x="203">Aprovação do</tspan><tspan dy="14" x="203">escopo  e</tspan><tspan dy="14" x="203">analise de verba</tspan></text></g><g sequence="14"><rect x="150" y="362" width="106" height="56" ry="5" rx="5" style="fill:url(#linearGradientF8FBFEEDF5FCDEEDFAD4E7F8E2E5E9_632799927);" stroke="191970" /></g><g componentSequence="14"><text x="203" y="379" text-anchor="middle" style="font-weight:bold;font-size:10px;stroke:none; fill:#333399"><tspan dy="14" x="203">Cotação</tspan></text></g><g sequence="15"><rect x="430" y="338" width="106" height="70" ry="5" rx="5" style="fill:url(#linearGradientF8FBFEEDF5FCDEEDFAD4E7F8E2E5E9_1622493285);" stroke="191970" /></g><g componentSequence="15"><text x="483" y="353" text-anchor="middle" style="font-weight:bold;font-size:10px;stroke:none; fill:#333399"><tspan dy="14" x="483">Confeccção do</tspan><tspan dy="14" x="483">contrato</tspan></text></g><g sequence="16"><rect x="150" y="493" width="106" height="70" ry="5" rx="5" style="fill:url(#linearGradientF8FBFEEDF5FCDEEDFAD4E7F8E2E5E9_845599781);" stroke="191970" /></g><g componentSequence="16"><text x="203" y="508" text-anchor="middle" style="font-weight:bold;font-size:10px;stroke:none; fill:#333399"><tspan dy="14" x="203">Aprovação</tspan><tspan dy="14" x="203">contratação</tspan></text></g><g sequence="17"><rect x="430" y="657" width="106" height="70" ry="5" rx="5" style="fill:url(#linearGradientF8FBFEEDF5FCDEEDFAD4E7F8E2E5E9_1369434757);" stroke="191970" /></g><g componentSequence="17"><text x="483" y="672" text-anchor="middle" style="font-weight:bold;font-size:10px;stroke:none; fill:#333399"><tspan dy="14" x="483">Analise do</tspan><tspan dy="14" x="483">Contrato</tspan></text></g><g sequence="18"><rect x="724" y="648" width="106" height="70" ry="5" rx="5" style="fill:url(#linearGradientF8FBFEEDF5FCDEEDFAD4E7F8E2E5E9_1252403323);" stroke="191970" /></g><g componentSequence="18"><text x="777" y="663" text-anchor="middle" style="font-weight:bold;font-size:10px;stroke:none; fill:#333399"><tspan dy="14" x="777">Assinatura do</tspan><tspan dy="14" x="777">contrato</tspan></text></g><g sequence="27"><ellipse cx="377" cy="234" rx="17" ry="17" stroke-width="3" style="fill:url(#linearGradientFF6666FF9696FFB6B6_10139434);" stroke="993333" /></g><g sequence="29"><rect x="724" y="338" width="106" height="70" ry="5" rx="5" style="fill:url(#linearGradientF8FBFEEDF5FCDEEDFAD4E7F8E2E5E9_81370336);" stroke="191970" /></g><g componentSequence="29"><text x="777" y="353" text-anchor="middle" style="font-weight:bold;font-size:10px;stroke:none; fill:#333399"><tspan dy="14" x="777">Criação do</tspan><tspan dy="14" x="777">contrato no RM</tspan></text></g><g sequence="31"><ellipse cx="777" cy="62" rx="17" ry="17" stroke-width="3" style="fill:url(#linearGradientFF6666FF9696FFB6B6_708613436);" stroke="993333" /></g><g sequence="34"><rect x="150" y="813" width="106" height="84" ry="5" rx="5" style="fill:url(#linearGradientF8FBFEEDF5FCDEEDFAD4E7F8E2E5E9_1369605616);" stroke="191970" /></g><g componentSequence="34"><text x="203" y="828" text-anchor="middle" style="font-weight:bold;font-size:10px;stroke:none; fill:#333399"><tspan dy="14" x="203">Aprovação</tspan><tspan dy="14" x="203">Superintendênci</tspan><tspan dy="14" x="203">a</tspan></text></g><g sequence="37"><ellipse cx="77" cy="544" rx="17" ry="17" stroke-width="3" style="fill:url(#linearGradientFF6666FF9696FFB6B6_81021705);" stroke="993333" /></g><g sequence="40"><rect x="300" y="493" width="106" height="70" ry="5" rx="5" style="fill:url(#linearGradientF8FBFEEDF5FCDEEDFAD4E7F8E2E5E9_1277356527);" stroke="191970" /></g><g componentSequence="40"><text x="353" y="508" text-anchor="middle" style="font-weight:bold;font-size:10px;stroke:none; fill:#333399"><tspan dy="14" x="353">Destina ao</tspan><tspan dy="14" x="353">comprador</tspan></text></g><g sequence="45"><rect x="580" y="338" width="106" height="70" ry="5" rx="5" style="fill:url(#linearGradientF8FBFEEDF5FCDEEDFAD4E7F8E2E5E9_41488418);" stroke="191970" /></g><g componentSequence="45"><text x="633" y="353" text-anchor="middle" style="font-weight:bold;font-size:10px;stroke:none; fill:#333399"><tspan dy="14" x="633">Analise de</tspan><tspan dy="14" x="633">Fornecedor</tspan></text></g><g sequence="48"><ellipse cx="107" cy="854" rx="17" ry="17" stroke-width="3" style="fill:url(#linearGradientFF6666FF9696FFB6B6_1202821272);" stroke="993333" /></g><g componentSequence="21"><text x="212" y="135" style="font-size:10px;font-weight:none;stroke:none; fill:#333399" text-anchor="left" /></g><g componentSequence="22"><text x="213" y="316" style="font-size:10px;font-weight:none;stroke:none; fill:#333399" text-anchor="left" /></g><g componentSequence="23"><text x="213" y="455" style="font-size:10px;font-weight:none;stroke:none; fill:#333399" text-anchor="left" /></g><g componentSequence="25"><text x="493" y="532" style="font-size:10px;font-weight:none;stroke:none; fill:#333399" text-anchor="left" /></g><g componentSequence="26"><text x="640" y="687" style="font-size:10px;font-weight:none;stroke:none; fill:#333399" text-anchor="left" /></g><g componentSequence="28"><text x="318" y="229" style="font-size:10px;font-weight:none;stroke:none; fill:#333399" text-anchor="left" /></g><g componentSequence="30"><text x="787" y="528" style="font-size:10px;font-weight:none;stroke:none; fill:#333399" text-anchor="left" /></g><g componentSequence="32"><text x="787" y="209" style="font-size:10px;font-weight:none;stroke:none; fill:#333399" text-anchor="left" /></g><g componentSequence="35"><text x="213" y="688" style="font-size:10px;font-weight:none;stroke:none; fill:#333399" text-anchor="left" /></g><g componentSequence="38"><text x="132" y="539" style="font-size:10px;font-weight:none;stroke:none; fill:#333399" text-anchor="left" /></g><g componentSequence="39"><text x="213" y="455" style="font-size:10px;font-weight:none;stroke:none; fill:#333399" text-anchor="left" /></g><g componentSequence="41"><text x="362" y="762" style="font-size:10px;font-weight:none;stroke:none; fill:#333399" text-anchor="left" /></g><g componentSequence="42"><text x="362" y="402" style="font-size:10px;font-weight:none;stroke:none; fill:#333399" text-anchor="left" /></g><g componentSequence="43"><text x="329" y="404" style="font-size:10px;font-weight:none;stroke:none; fill:#333399" text-anchor="left" /></g><g componentSequence="44"><text x="493" y="532" style="font-size:10px;font-weight:none;stroke:none; fill:#333399" text-anchor="left" /></g><g componentSequence="46"><text x="568" y="373" style="font-size:10px;font-weight:none;stroke:none; fill:#333399" text-anchor="left" /></g><g componentSequence="47"><text x="568" y="373" style="font-size:10px;font-weight:none;stroke:none; fill:#333399" text-anchor="left" /></g><g componentSequence="49"><text x="147" y="854" style="font-size:10px;font-weight:none;stroke:none; fill:#333399" text-anchor="left" /></g><g componentSequence="50"><text x="213" y="688" style="font-size:10px;font-weight:none;stroke:none; fill:#333399" text-anchor="left" /></g><path style="fill:none; stroke:#000000;stroke-width:1" d="M202.0 97.0 L202.0 172.0" /><polygon style="fill:#000000; stroke:#000000;" points=" 207 162 202 172 197 162 202 164" /><path style="fill:none; stroke:#000000;stroke-width:1" d="M203.0 271.0 L203.0 361.0" /><polygon style="fill:#000000; stroke:#000000;" points=" 208 351 203 361 198 351 203 353" /><path style="fill:none; stroke:#000000;stroke-width:1" d="M256.0 225.0 L360.0 233.0" /><polygon style="fill:#000000; stroke:#000000;" points=" 350 227 360 233 350 237 352 232" /><path style="fill:none; stroke:#000000;stroke-width:1" d="M203.0 418.0 L203.0 492.0" /><polygon style="fill:#000000; stroke:#000000;" points=" 208 482 203 492 198 482 203 484" /><path style="fill:none; stroke:#000000;stroke-width:1" d="M203.0 492.0 L203.0 418.0" /><polygon style="fill:#000000; stroke:#000000;" points=" 198 428 203 418 208 428 203 426" /><path style="fill:none; stroke:#000000;stroke-width:1" d="M483.0 408.0 L483.0 656.0" /><polygon style="fill:#000000; stroke:#000000;" points=" 488 646 483 656 478 646 483 648" /><path style="fill:none; stroke:#000000;stroke-width:1" d="M536.0 373.0 L579.0 373.0" /><polygon style="fill:#000000; stroke:#000000;" points=" 569 368 579 373 569 378 571 373" /><path style="fill:none; stroke:#000000;stroke-width:1" d="M352.0 492.0 L352.0 390.0 L429.0 380.0" /><polygon style="fill:#000000; stroke:#000000;" points=" 418 376 429 380 420 386 421 381" /><path style="fill:none; stroke:#000000;stroke-width:1" d="M236.0 492.0 L342.0 379.0 L381.0 379.0 L406.0 379.0 L422.0 379.0 L429.0 378.0" /><polygon style="fill:#000000; stroke:#000000;" points=" 418 374 429 378 420 384 421 379" /><path style="fill:none; stroke:#000000;stroke-width:1" d="M483.0 656.0 L483.0 408.0" /><polygon style="fill:#000000; stroke:#000000;" points=" 478 418 483 408 488 418 483 416" /><path style="fill:none; stroke:#000000;stroke-width:1" d="M579.0 373.0 L536.0 373.0" /><polygon style="fill:#000000; stroke:#000000;" points=" 546 378 536 373 546 368 544 373" /><path style="fill:none; stroke:#000000;stroke-width:1" d="M203.0 563.0 L203.0 812.0" /><polygon style="fill:#000000; stroke:#000000;" points=" 208 802 203 812 198 802 203 804" /><path style="fill:none; stroke:#000000;stroke-width:1" d="M149.0 535.0 L94.0 542.0" /><polygon style="fill:#000000; stroke:#000000;" points=" 105 546 94 542 103 536 102 541" /><path style="fill:none; stroke:#000000;stroke-width:1" d="M203.0 812.0 L203.0 563.0" /><polygon style="fill:#000000; stroke:#000000;" points=" 198 573 203 563 208 573 203 571" /><path style="fill:none; stroke:#000000;stroke-width:1" d="M536.0 690.0 L723.0 684.0" /><polygon style="fill:#000000; stroke:#000000;" points=" 713 679 723 684 713 689 715 684" /><path style="fill:none; stroke:#000000;stroke-width:1" d="M777.0 647.0 L777.0 408.0" /><polygon style="fill:#000000; stroke:#000000;" points=" 772 418 777 408 782 418 777 416" /><path style="fill:none; stroke:#000000;stroke-width:1" d="M777.0 337.0 L777.0 80.0" /><polygon style="fill:#000000; stroke:#000000;" points=" 772 90 777 80 782 90 777 88" /><path style="fill:none; stroke:#000000;stroke-width:1" d="M256.0 858.0 L352.0 864.0 L352.0 563.0" /><polygon style="fill:#000000; stroke:#000000;" points=" 347 573 352 563 357 573 352 571" /><path style="fill:none; stroke:#000000;stroke-width:1" d="M149.0 854.0 L124.0 854.0" /><polygon style="fill:#000000; stroke:#000000;" points=" 134 859 124 854 134 849 132 854" /><defs><linearGradient xmlns:xlink="http://www.w3.org/1999/xlink" xlink:href="#linearGradient66FF6696FF96B6FFB6" id="linearGradient66FF6696FF96B6FFB6_793749959" x1="0" y1="63.0" x2="0" y2="98.0" gradientUnits="userSpaceOnUse" xlink:type="simple" xlink:actuate="onLoad" xlink:show="other" /><linearGradient id="linearGradient66FF6696FF96B6FFB6"><stop style="stop-color:#66FF66;stop-opacity:1;" offset="0.0" id="stop66FF66" /><stop style="stop-color:#96FF96;stop-opacity:1;" offset="0.5" id="stop96FF96" /><stop style="stop-color:#B6FFB6;stop-opacity:1;" offset="1.0" id="stopB6FFB6" /></linearGradient><linearGradient xmlns:xlink="http://www.w3.org/1999/xlink" xlink:href="#linearGradientF8FBFEEDF5FCDEEDFAD4E7F8E2E5E9" id="linearGradientF8FBFEEDF5FCDEEDFAD4E7F8E2E5E9_562578014" x1="0" y1="173.0" x2="0" y2="279.0" gradientUnits="userSpaceOnUse" xlink:type="simple" xlink:actuate="onLoad" xlink:show="other" /><linearGradient id="linearGradientF8FBFEEDF5FCDEEDFAD4E7F8E2E5E9"><stop style="stop-color:#F8FBFE;stop-opacity:1;" offset="0.0" id="stopF8FBFE" /><stop style="stop-color:#EDF5FC;stop-opacity:1;" offset="0.25" id="stopEDF5FC" /><stop style="stop-color:#DEEDFA;stop-opacity:1;" offset="0.5" id="stopDEEDFA" /><stop style="stop-color:#D4E7F8;stop-opacity:1;" offset="0.75" id="stopD4E7F8" /><stop style="stop-color:#E2E5E9;stop-opacity:1;" offset="1.0" id="stopE2E5E9" /></linearGradient><linearGradient xmlns:xlink="http://www.w3.org/1999/xlink" xlink:href="#linearGradientF8FBFEEDF5FCDEEDFAD4E7F8E2E5E9" id="linearGradientF8FBFEEDF5FCDEEDFAD4E7F8E2E5E9_632799927" x1="0" y1="362.0" x2="0" y2="468.0" gradientUnits="userSpaceOnUse" xlink:type="simple" xlink:actuate="onLoad" xlink:show="other" /><linearGradient xmlns:xlink="http://www.w3.org/1999/xlink" xlink:href="#linearGradientF8FBFEEDF5FCDEEDFAD4E7F8E2E5E9" id="linearGradientF8FBFEEDF5FCDEEDFAD4E7F8E2E5E9_1622493285" x1="0" y1="338.0" x2="0" y2="444.0" gradientUnits="userSpaceOnUse" xlink:type="simple" xlink:actuate="onLoad" xlink:show="other" /><linearGradient xmlns:xlink="http://www.w3.org/1999/xlink" xlink:href="#linearGradientF8FBFEEDF5FCDEEDFAD4E7F8E2E5E9" id="linearGradientF8FBFEEDF5FCDEEDFAD4E7F8E2E5E9_845599781" x1="0" y1="493.0" x2="0" y2="599.0" gradientUnits="userSpaceOnUse" xlink:type="simple" xlink:actuate="onLoad" xlink:show="other" /><linearGradient xmlns:xlink="http://www.w3.org/1999/xlink" xlink:href="#linearGradientF8FBFEEDF5FCDEEDFAD4E7F8E2E5E9" id="linearGradientF8FBFEEDF5FCDEEDFAD4E7F8E2E5E9_1369434757" x1="0" y1="657.0" x2="0" y2="763.0" gradientUnits="userSpaceOnUse" xlink:type="simple" xlink:actuate="onLoad" xlink:show="other" /><linearGradient xmlns:xlink="http://www.w3.org/1999/xlink" xlink:href="#linearGradientF8FBFEEDF5FCDEEDFAD4E7F8E2E5E9" id="linearGradientF8FBFEEDF5FCDEEDFAD4E7F8E2E5E9_1252403323" x1="0" y1="648.0" x2="0" y2="754.0" gradientUnits="userSpaceOnUse" xlink:type="simple" xlink:actuate="onLoad" xlink:show="other" /><linearGradient xmlns:xlink="http://www.w3.org/1999/xlink" xlink:href="#linearGradientFF6666FF9696FFB6B6" id="linearGradientFF6666FF9696FFB6B6_10139434" x1="0" y1="217.0" x2="0" y2="252.0" gradientUnits="userSpaceOnUse" xlink:type="simple" xlink:actuate="onLoad" xlink:show="other" /><linearGradient id="linearGradientFF6666FF9696FFB6B6"><stop style="stop-color:#FF6666;stop-opacity:1;" offset="0.0" id="stopFF6666" /><stop style="stop-color:#FF9696;stop-opacity:1;" offset="0.5" id="stopFF9696" /><stop style="stop-color:#FFB6B6;stop-opacity:1;" offset="1.0" id="stopFFB6B6" /></linearGradient><linearGradient xmlns:xlink="http://www.w3.org/1999/xlink" xlink:href="#linearGradientF8FBFEEDF5FCDEEDFAD4E7F8E2E5E9" id="linearGradientF8FBFEEDF5FCDEEDFAD4E7F8E2E5E9_81370336" x1="0" y1="338.0" x2="0" y2="444.0" gradientUnits="userSpaceOnUse" xlink:type="simple" xlink:actuate="onLoad" xlink:show="other" /><linearGradient xmlns:xlink="http://www.w3.org/1999/xlink" xlink:href="#linearGradientFF6666FF9696FFB6B6" id="linearGradientFF6666FF9696FFB6B6_708613436" x1="0" y1="45.0" x2="0" y2="80.0" gradientUnits="userSpaceOnUse" xlink:type="simple" xlink:actuate="onLoad" xlink:show="other" /><linearGradient xmlns:xlink="http://www.w3.org/1999/xlink" xlink:href="#linearGradientF8FBFEEDF5FCDEEDFAD4E7F8E2E5E9" id="linearGradientF8FBFEEDF5FCDEEDFAD4E7F8E2E5E9_1369605616" x1="0" y1="813.0" x2="0" y2="919.0" gradientUnits="userSpaceOnUse" xlink:type="simple" xlink:actuate="onLoad" xlink:show="other" /><linearGradient xmlns:xlink="http://www.w3.org/1999/xlink" xlink:href="#linearGradientFF6666FF9696FFB6B6" id="linearGradientFF6666FF9696FFB6B6_81021705" x1="0" y1="527.0" x2="0" y2="562.0" gradientUnits="userSpaceOnUse" xlink:type="simple" xlink:actuate="onLoad" xlink:show="other" /><linearGradient xmlns:xlink="http://www.w3.org/1999/xlink" xlink:href="#linearGradientF8FBFEEDF5FCDEEDFAD4E7F8E2E5E9" id="linearGradientF8FBFEEDF5FCDEEDFAD4E7F8E2E5E9_1277356527" x1="0" y1="493.0" x2="0" y2="599.0" gradientUnits="userSpaceOnUse" xlink:type="simple" xlink:actuate="onLoad" xlink:show="other" /><linearGradient xmlns:xlink="http://www.w3.org/1999/xlink" xlink:href="#linearGradientF8FBFEEDF5FCDEEDFAD4E7F8E2E5E9" id="linearGradientF8FBFEEDF5FCDEEDFAD4E7F8E2E5E9_41488418" x1="0" y1="338.0" x2="0" y2="444.0" gradientUnits="userSpaceOnUse" xlink:type="simple" xlink:actuate="onLoad" xlink:show="other" /><linearGradient xmlns:xlink="http://www.w3.org/1999/xlink" xlink:href="#linearGradientFF6666FF9696FFB6B6" id="linearGradientFF6666FF9696FFB6B6_1202821272" x1="0" y1="837.0" x2="0" y2="872.0" gradientUnits="userSpaceOnUse" xlink:type="simple" xlink:actuate="onLoad" xlink:show="other" /></defs></svg>
